<svg xmlns="http://www.w3.org/2000/svg" viewBox="0 0 36 18">
  <path fill='#fff' d="M30 0c-.55 0-1.143.427-1.316.949l-2.367 7.103C26.143 8.573 26 8.55 26 8V1c0-.55-.45-1-1-1h-5c-.55 0-1.142.427-1.316.949l-3.367 10.103c-.175.521-.767.948-1.317.948H6c-.55 0-.858-.427-.684-.948l1.367-4.103C6.858 6.427 7.45 6 8 6h5c.55 0 1.142-.427 1.316-.949L15.683.948C15.858.427 15.55 0 15 0H5c-.55 0-1.142.427-1.316.949L.316 11.052c-.174.521-.174 1.375 0 1.896l1.367 4.104C1.858 17.573 2.45 18 3 18h14c.55 0 1.142-.427 1.316-.948l2.367-7.103c.174-.522.317-.499.317.051v7c0 .55.45 1 1 1h5c.55 0 1.143-.427 1.316-.948l2.367-7.103c.174-.522.317-.499.317.051v7c0 .55.45 1 1 1h3c.55 0 1-.45 1-1V1c0-.55-.45-1-1-1h-5z"/>
</svg>
